<svg width="12" height="12" viewBox="0 0 12 12" fill="none" xmlns="http://www.w3.org/2000/svg">
<path d="M7.97999 6.00037L11.6923 2.28802C12.1025 1.87784 12.1025 1.21284 11.6923 0.803306L11.1974 0.308402C10.7871 -0.101903 10.1221 -0.101903 9.7126 0.308402L6.00037 4.02063L2.28802 0.307633C1.87784 -0.102544 1.21284 -0.102544 0.803306 0.307633L0.307633 0.802536C-0.102544 1.21284 -0.102544 1.87784 0.307633 2.28738L4.02063 6.00037L0.308402 9.7126C-0.101903 10.1229 -0.101903 10.7879 0.308402 11.1974L0.803306 11.6923C1.21348 12.1025 1.87848 12.1025 2.28802 11.6923L6.00037 7.97999L9.7126 11.6923C10.1229 12.1025 10.7879 12.1025 11.1974 11.6923L11.6923 11.1974C12.1025 10.7871 12.1025 10.1221 11.6923 9.7126L7.97999 6.00037Z" fill="#D52823"/>
</svg>
