<svg width="15" height="15" viewBox="0 0 15 15" fill="none" xmlns="http://www.w3.org/2000/svg">
<path fill-rule="evenodd" clip-rule="evenodd" d="M7.5 15C11.6421 15 15 11.6421 15 7.5C15 3.35786 11.6421 0 7.5 0C3.35786 0 0 3.35786 0 7.5C0 11.6421 3.35786 15 7.5 15ZM9.84584 6.00724C9.94861 5.72987 10 5.41738 10 5.06978C10 4.77134 9.94005 4.49748 9.82014 4.24819C9.70367 3.99539 9.53237 3.77595 9.30627 3.58986C9.07331 3.40377 8.79068 3.25982 8.45838 3.158C8.1295 3.05267 7.74923 3 7.31757 3C6.83453 3 6.38232 3.05091 5.96095 3.15273C5.53957 3.25455 5.21925 3.35462 5 3.45293V5.03818H5.14902C5.33402 4.90827 5.58753 4.77836 5.90956 4.64845C6.23501 4.51854 6.54162 4.45359 6.82939 4.45359C7.21309 4.45359 7.51285 4.53259 7.72867 4.69059C7.9445 4.84858 8.05241 5.10138 8.05241 5.44898C8.05241 5.69827 7.99246 5.9142 7.87256 6.09677C7.75266 6.27935 7.59849 6.4391 7.41007 6.57604C7.23193 6.70946 7.02467 6.82181 6.78828 6.9131C6.55533 7.00439 6.34293 7.07637 6.15108 7.12903V8.89335H7.90853V7.69256C8.22371 7.56265 8.50805 7.4187 8.76156 7.2607C9.0185 7.1027 9.23775 6.92363 9.41932 6.7235C9.60432 6.51986 9.74649 6.28111 9.84584 6.00724ZM6.02775 11H8.05241V9.60961H6.02775V11Z" fill="#434343"/>
</svg>