<svg width="32" height="29" viewBox="0 0 32 29" fill="none" xmlns="http://www.w3.org/2000/svg">
<path d="M4.83554 19.7599C4.97054 19.7599 5.10554 19.7048 5.20127 19.6045C5.29699 19.5068 5.35345 19.3715 5.35345 19.2312C5.35345 19.0934 5.29945 18.9556 5.20127 18.8579C5.10554 18.7602 4.97299 18.7026 4.83554 18.7026C4.70054 18.7026 4.56554 18.7577 4.46981 18.8579C4.37408 18.9556 4.31763 19.0909 4.31763 19.2312C4.31763 19.369 4.37163 19.5068 4.46981 19.6045C4.56554 19.7048 4.69808 19.7599 4.83554 19.7599Z" fill="#A4A4A4"/>
<path d="M22.2308 8.39297C22.1351 8.49068 22.0786 8.62597 22.0786 8.76627C22.0786 8.90407 22.1326 9.04187 22.2308 9.13958C22.3265 9.23729 22.4591 9.29491 22.5965 9.29491C22.7315 9.29491 22.8665 9.23979 22.9622 9.13958C23.058 9.04187 23.1144 8.90658 23.1144 8.76627C23.1144 8.62848 23.0604 8.49068 22.9622 8.39297C22.8665 8.29526 22.734 8.23764 22.5965 8.23764C22.4615 8.24015 22.329 8.29526 22.2308 8.39297Z" fill="#A4A4A4"/>
<path d="M8.22274 4.56229C8.12701 4.65999 8.07056 4.79528 8.07056 4.93558C8.07056 5.07338 8.12456 5.21118 8.22274 5.30888C8.31847 5.40659 8.45102 5.46422 8.58847 5.46422C8.72347 5.46422 8.85847 5.4091 8.9542 5.30888C9.04993 5.21118 9.10639 5.07589 9.10639 4.93558C9.10639 4.79779 9.05239 4.65999 8.9542 4.56229C8.85847 4.46458 8.72593 4.40695 8.58847 4.40695C8.45347 4.40695 8.31847 4.46458 8.22274 4.56229Z" fill="#A4A4A4"/>
<path d="M5.19882 8.39297C5.1031 8.29526 4.97055 8.23764 4.8331 8.23764C4.6981 8.23764 4.5631 8.29276 4.46737 8.39297C4.37164 8.49068 4.31519 8.62597 4.31519 8.76627C4.31519 8.90407 4.36919 9.04187 4.46737 9.13958C4.5631 9.23729 4.69564 9.29491 4.8331 9.29491C4.9681 9.29491 5.1031 9.23979 5.19882 9.13958C5.29455 9.04187 5.35101 8.90658 5.35101 8.76627C5.35101 8.62848 5.29701 8.49068 5.19882 8.39297Z" fill="#A4A4A4"/>
<path d="M8.9542 23.4377C9.04993 23.34 9.10639 23.2047 9.10639 23.0644C9.10639 22.9266 9.05239 22.7888 8.9542 22.6911C8.85847 22.5934 8.72593 22.5358 8.58847 22.5358C8.45347 22.5358 8.31847 22.5909 8.22274 22.6911C8.12701 22.7888 8.07056 22.9241 8.07056 23.0644C8.07056 23.2022 8.12456 23.34 8.22274 23.4377C8.31847 23.5354 8.45102 23.5931 8.58847 23.5931C8.72347 23.5931 8.85847 23.5354 8.9542 23.4377Z" fill="#A4A4A4"/>
<path d="M18.4779 4.56229C18.3821 4.65999 18.3257 4.79528 18.3257 4.93558C18.3257 5.07338 18.3797 5.21118 18.4779 5.30888C18.5736 5.40659 18.7061 5.46422 18.8436 5.46422C18.9786 5.46422 19.1136 5.4091 19.2093 5.30888C19.305 5.21118 19.3615 5.07589 19.3615 4.93558C19.3615 4.79779 19.3075 4.65999 19.2093 4.56229C19.1136 4.46458 18.981 4.40695 18.8436 4.40695C18.7086 4.40695 18.5736 4.46458 18.4779 4.56229Z" fill="#A4A4A4"/>
<path d="M14.2316 24.8057V23.122C14.2316 22.8314 14.0009 22.5959 13.7161 22.5959C13.4314 22.5959 13.2007 22.8314 13.2007 23.122V24.8057C13.2007 25.0963 13.4314 25.3318 13.7161 25.3318C14.0009 25.3318 14.2316 25.0963 14.2316 24.8057Z" fill="#A4A4A4"/>
<path d="M13.2007 3.19434V4.87795C13.2007 5.16857 13.4314 5.40407 13.7161 5.40407C14.0009 5.40407 14.2316 5.16857 14.2316 4.87795V3.19434C14.2316 2.90372 14.0009 2.66821 13.7161 2.66821C13.4314 2.66821 13.2007 2.90372 13.2007 3.19434Z" fill="#A4A4A4"/>
<path d="M5.29682 14C5.29682 13.7094 5.0661 13.4739 4.78137 13.4739H3.13191C2.84718 13.4739 2.61646 13.7094 2.61646 14C2.61646 14.2906 2.84718 14.5261 3.13191 14.5261H4.78137C5.0661 14.5261 5.29682 14.2906 5.29682 14Z" fill="#A4A4A4"/>
<path d="M24.8179 14C24.8179 13.7094 24.5871 13.4739 24.3024 13.4739H22.6529C22.3682 13.4739 22.1375 13.7094 22.1375 14C22.1375 14.2906 22.3682 14.5261 22.6529 14.5261H24.3024C24.5871 14.5261 24.8179 14.2906 24.8179 14Z" fill="#A4A4A4"/>
<path d="M15.287 12.592L14.8697 12.8225C14.6905 12.6396 14.4745 12.5043 14.234 12.4216V7.09021C14.234 6.79959 14.0033 6.56409 13.7185 6.56409C13.4338 6.56409 13.2031 6.79959 13.2031 7.09021V12.4216C12.5575 12.6421 12.0912 13.2659 12.0912 14C12.0912 14.1178 12.1034 14.233 12.128 14.3483L7.61159 16.9288C7.36368 17.0716 7.27286 17.3923 7.41277 17.6453C7.5085 17.8182 7.68277 17.9159 7.86441 17.9159C7.95032 17.9159 8.03623 17.8934 8.11477 17.8483L12.6532 15.2552C12.8152 15.398 13.0042 15.5083 13.2055 15.5759V16.2549C13.2055 16.5455 13.4362 16.781 13.721 16.781C14.0057 16.781 14.2364 16.5455 14.2364 16.2549V15.5759C14.882 15.3554 15.3483 14.7316 15.3483 13.9975C15.3483 13.9198 15.3434 13.8422 15.3312 13.7645L15.7803 13.5165C16.0307 13.3787 16.124 13.058 15.989 12.8025C15.8491 12.5494 15.5373 12.4542 15.287 12.592ZM13.7161 14.6088C13.5246 14.6088 13.3479 14.5186 13.235 14.3608C13.1589 14.2556 13.1196 14.1303 13.1196 14C13.1196 13.6643 13.3872 13.3912 13.7161 13.3912C13.9443 13.3912 14.1505 13.524 14.2512 13.7294C14.2512 13.7319 14.2536 13.7345 14.2536 13.737C14.2585 13.7445 14.261 13.7545 14.2659 13.762C14.2978 13.8372 14.3125 13.9173 14.3125 14C14.3125 14.3357 14.045 14.6088 13.7161 14.6088Z" fill="#A4A4A4"/>
<path d="M13.716 26.8976C6.74756 26.8976 1.08 21.1102 1.08 14C1.08 6.88976 6.74756 1.10236 13.716 1.10236C20.6845 1.10236 26.3521 6.88976 26.3521 14C26.3521 14.3032 26.5926 14.5512 26.8921 14.5512C27.1891 14.5512 27.4321 14.3057 27.4321 14C27.4321 12.111 27.0688 10.277 26.3545 8.55082C25.6648 6.88475 24.6756 5.38654 23.4164 4.10129C22.1572 2.81603 20.6894 1.80637 19.0571 1.10236C17.3635 0.370795 15.5668 0 13.716 0C11.8653 0 10.0686 0.370795 8.37739 1.09986C6.74266 1.80637 5.27729 2.81603 4.0181 4.10129C2.75892 5.38654 1.76973 6.88225 1.07755 8.55082C0.363274 10.277 0 12.111 0 14C0 15.889 0.363274 17.723 1.07755 19.4492C1.76728 21.1152 2.75646 22.6135 4.01565 23.8987C5.27483 25.184 6.74266 26.1936 8.37493 26.8976C10.0661 27.6267 11.8629 27.9975 13.7136 27.9975C14.0106 27.9975 14.2536 27.752 14.2536 27.4463C14.2536 27.1407 14.013 26.8976 13.716 26.8976Z" fill="#A4A4A4"/>
<path d="M23.4065 23.2974H22.5597V17.1267C22.5597 16.8887 22.4124 16.6783 22.1915 16.6056C21.9706 16.5304 21.7276 16.6081 21.5901 16.796L16.6418 23.5179C16.519 23.6858 16.4994 23.9087 16.5902 24.0941C16.681 24.282 16.8676 24.3998 17.0738 24.3998H21.4821V27.4513C21.4821 27.7545 21.7227 28.0025 22.0221 28.0025C22.3191 28.0025 22.5621 27.757 22.5621 27.4513V24.3973H23.409C23.706 24.3973 23.949 24.1518 23.949 23.8461C23.9465 23.543 23.706 23.2974 23.4065 23.2974ZM21.4821 23.2974H18.1538L21.4821 18.7752V23.2974Z" fill="#A4A4A4"/>
<path d="M30.8756 22.4531C30.7014 22.3078 30.5124 22.1775 30.3111 22.0673C30.3086 22.0648 30.3062 22.0623 30.3013 22.0598C30.6744 21.8368 30.9935 21.5437 31.2414 21.1979C31.5899 20.7094 31.774 20.1407 31.774 19.5519C31.774 19.5018 31.7716 19.4517 31.7691 19.4016C31.7298 18.65 31.3936 17.9535 30.8143 17.4249C30.2129 16.8762 29.4176 16.573 28.5733 16.573C27.7289 16.573 26.9336 16.8762 26.3323 17.4249C25.753 17.9535 25.4167 18.6525 25.3775 19.4016C25.375 19.4517 25.3725 19.5018 25.3725 19.5519C25.3725 20.1407 25.5566 20.7094 25.9052 21.1979C26.1531 21.5437 26.4722 21.8368 26.8453 22.0598C26.8428 22.0623 26.8404 22.0648 26.8355 22.0673C26.6342 22.1775 26.4452 22.3078 26.2709 22.4531C25.5566 23.0544 25.1467 23.9163 25.1467 24.8132C25.1467 24.9234 25.1516 25.0312 25.1639 25.1389C25.1688 25.189 25.1762 25.2391 25.1835 25.2867C25.186 25.2967 25.186 25.3042 25.1885 25.3143C25.2326 25.5748 25.3112 25.8304 25.4265 26.0759C25.5959 26.4417 25.834 26.7674 26.1335 27.0505C26.1457 27.063 26.1605 27.0755 26.1727 27.0881C26.2096 27.1231 26.2488 27.1557 26.2856 27.1883C26.2881 27.1908 26.2906 27.1933 26.2955 27.1958C26.2979 27.1983 26.3004 27.2008 26.3028 27.2008C26.9287 27.7169 27.7289 28 28.5733 28C29.4176 28 30.2178 27.7169 30.8437 27.2008C30.8462 27.1983 30.8486 27.1958 30.8511 27.1958C30.8536 27.1933 30.8585 27.1908 30.8609 27.1883C30.9002 27.1557 30.937 27.1231 30.9738 27.0881C30.9886 27.0755 31.0008 27.063 31.0131 27.0505C31.3126 26.7674 31.5507 26.4392 31.72 26.0759C31.8329 25.8304 31.9139 25.5773 31.9581 25.3143C31.9606 25.3042 31.9606 25.2967 31.963 25.2867C31.9753 25.2115 31.9851 25.1339 31.99 25.0562C31.9974 24.976 31.9998 24.8934 31.9998 24.8107C31.9998 23.9163 31.5899 23.0569 30.8756 22.4531ZM26.4746 19.5544C26.4746 19.4742 26.4796 19.3966 26.4918 19.3189C26.4967 19.2888 26.5016 19.2563 26.5066 19.2262C26.509 19.2112 26.5139 19.1961 26.5164 19.1811C26.7127 18.3368 27.5596 17.7004 28.5708 17.7004C29.5821 17.7004 30.4314 18.3368 30.6253 19.1811C30.6277 19.1961 30.6326 19.2112 30.6351 19.2262C30.6425 19.2563 30.6474 19.2863 30.6498 19.3189C30.6621 19.3966 30.667 19.4742 30.667 19.5544C30.667 20.2609 30.2006 20.9173 29.4766 21.2255C29.4667 21.228 29.4594 21.233 29.4496 21.238C29.2336 21.3433 28.9243 21.476 28.5684 21.4911C28.2223 21.4735 27.9032 21.3433 27.6872 21.238C27.6774 21.233 27.67 21.2305 27.6602 21.2255C26.941 20.9173 26.4746 20.2609 26.4746 19.5544ZM30.8977 24.8683C30.8977 24.9034 30.8953 24.9385 30.8928 24.9735C30.8879 25.0261 30.8806 25.0788 30.8732 25.1289C30.7014 26.1185 29.7367 26.8776 28.5757 26.8776C27.4147 26.8776 26.4476 26.1185 26.2783 25.1289C26.2685 25.0788 26.2636 25.0261 26.2586 24.9735C26.2562 24.9385 26.2537 24.9034 26.2537 24.8683C26.2537 24.8508 26.2537 24.8332 26.2537 24.8157C26.2537 24.247 26.5188 23.7259 26.9778 23.3225C27.4098 22.9417 27.9425 22.6586 28.5782 22.641C29.2949 22.6511 29.8766 23.0594 30.1786 23.3225C30.6376 23.7259 30.9026 24.247 30.9026 24.8157C30.8977 24.8307 30.8977 24.8483 30.8977 24.8683Z" fill="#A4A4A4"/>
</svg>
