<svg width="25" height="25" viewBox="0 0 25 25" fill="none" xmlns="http://www.w3.org/2000/svg">
<path d="M15.4792 16.1124H14.7468V9.52107C14.7468 9.11662 14.4189 8.7887 14.0145 8.7887H9.62028C9.21584 8.7887 8.88791 9.11658 8.88791 9.52107V12.4505C8.88791 12.8549 9.21579 13.1829 9.62028 13.1829H10.3527V16.1123H9.62028C9.21584 16.1123 8.88791 16.4402 8.88791 16.8447V19.7741C8.88791 20.1786 9.21579 20.5065 9.62028 20.5065H15.4792C15.8836 20.5065 16.2116 20.1786 16.2116 19.7741V16.8447C16.2116 16.4403 15.8836 16.1124 15.4792 16.1124ZM14.7468 19.0418H10.3527V17.5771H11.085C11.4895 17.5771 11.8174 17.2492 11.8174 16.8447V12.4505C11.8174 12.0461 11.4895 11.7182 11.085 11.7182H10.3527V10.2534H13.2821V16.8447C13.2821 17.2492 13.61 17.5771 14.0145 17.5771H14.7468V19.0418Z" fill="#356DFE"/>
<path d="M12.5497 2.92981C11.3382 2.92981 10.3526 3.9154 10.3526 5.12692C10.3526 6.33844 11.3382 7.32403 12.5497 7.32403C13.7612 7.32403 14.7468 6.33844 14.7468 5.12692C14.7468 3.9154 13.7612 2.92981 12.5497 2.92981ZM12.5497 5.85924C12.1459 5.85924 11.8173 5.53073 11.8173 5.12687C11.8173 4.72307 12.1459 4.3945 12.5497 4.3945C12.9535 4.3945 13.2821 4.72307 13.2821 5.12687C13.2821 5.53073 12.9536 5.85924 12.5497 5.85924Z" fill="#356DFE"/>
<path d="M12.5497 0C5.71947 0 0.00190696 5.51834 0.00190696 12.4502C0.00190696 14.8601 0.69336 17.2551 1.95586 19.2398L0.0542994 23.9937C-0.185983 24.5943 0.414454 25.1824 1.00625 24.9457L5.76014 23.0442C7.7449 24.3066 10.1399 24.9981 12.5498 24.9981C19.4891 24.9981 25 19.2731 25 12.4503C24.9999 5.56898 19.4315 0 12.5497 0ZM12.5497 23.5431C10.297 23.5431 8.06228 22.853 6.25731 21.6176C6.0554 21.4794 5.79827 21.4513 5.57166 21.5419L2.04887 22.9511L3.458 19.4283C3.54872 19.2015 3.52035 18.9443 3.38236 18.7427C2.14697 16.9377 1.45683 14.703 1.45683 12.4503C1.45683 6.39285 6.43846 1.45502 12.5497 1.45502C18.6071 1.45502 23.5449 6.40262 23.5449 12.46C23.5449 18.5712 18.6072 23.5431 12.5497 23.5431Z" fill="#356DFE"/>
</svg>
