<svg width="15" height="15" viewBox="0 0 15 15" fill="none" xmlns="http://www.w3.org/2000/svg">
<path d="M12.261 5.42329L7.86645 0.149854C7.70005 -0.0499512 7.29985 -0.0499512 7.13315 0.149854L2.73862 5.42329C2.49927 5.70952 2.70464 6.14429 3.07612 6.14429H5.27339V11.0449C5.27339 11.2878 5.46997 11.4844 5.71284 11.4844H9.28706C9.52993 11.4844 9.72651 11.2878 9.72651 11.0449V6.14429H11.9238C12.2953 6.14429 12.5003 5.70952 12.261 5.42329Z" fill="#A4A4A4"/>
<path d="M14.5605 8.84766H12.8027C12.5599 8.84766 12.3633 9.04424 12.3633 9.28711V12.3633H2.63672V9.28711C2.63672 9.04424 2.44014 8.84766 2.19727 8.84766H0.439453C0.196582 8.84766 0 9.04424 0 9.28711V13.6816C0 14.4088 0.591211 15 1.31836 15H13.6816C14.4085 15 15 14.4088 15 13.6816V9.28711C15 9.04424 14.8034 8.84766 14.5605 8.84766Z" fill="#A4A4A4"/>
</svg>
