<svg width="15" height="15" viewBox="0 0 15 15" fill="none" xmlns="http://www.w3.org/2000/svg">
<path d="M14.9519 6.6362C14.92 6.55994 14.8744 6.49057 14.8163 6.43244L12.9419 4.55806C12.6975 4.31431 12.3025 4.31431 12.0581 4.55806C11.8138 4.80242 11.8138 5.19805 12.0581 5.4418L12.8663 6.24992H9.37499C9.02938 6.24992 8.75 6.52991 8.75 6.87491C8.75 7.21991 9.02938 7.4999 9.37499 7.4999H12.8662L12.0581 8.30803C11.8137 8.5524 11.8137 8.94802 12.0581 9.19177C12.18 9.31426 12.34 9.37491 12.5 9.37491C12.66 9.37491 12.82 9.31429 12.9419 9.19177L14.8163 7.31738C14.8744 7.25988 14.92 7.1905 14.9519 7.11362C15.015 6.96119 15.015 6.78869 14.9519 6.6362Z" fill="#A4A4A4"/>
<path d="M10.625 8.75001C10.2794 8.75001 9.99999 9.03 9.99999 9.375V12.5H7.5V2.49999C7.5 2.22437 7.31874 1.98062 7.05436 1.90125L4.88373 1.25001H9.99999V4.37502C9.99999 4.72002 10.2794 5.00001 10.625 5.00001C10.9706 5.00001 11.25 4.72002 11.25 4.37502V0.62502C11.25 0.27999 10.9706 0 10.625 0H0.62499C0.60249 0 0.58248 0.009375 0.560625 0.0118652C0.53124 0.015 0.504375 0.0199805 0.47625 0.0268652C0.410625 0.0437402 0.35124 0.069375 0.295635 0.104355C0.281895 0.113115 0.26502 0.11373 0.251895 0.123721C0.246855 0.1275 0.24498 0.134385 0.239971 0.138135C0.171855 0.191865 0.11499 0.25749 0.0737402 0.335625C0.0649805 0.3525 0.0631055 0.370635 0.05625 0.388125C0.0362402 0.435615 0.0143848 0.481875 0.00688477 0.534375C0.00375 0.553125 0.009375 0.570615 0.00875977 0.58875C0.00814453 0.60126 0 0.61251 0 0.62499V13.125C0 13.4231 0.210615 13.6794 0.5025 13.7375L6.75249 14.9875C6.79312 14.9963 6.83437 15 6.87498 15C7.0181 15 7.15872 14.9507 7.27122 14.8581C7.4156 14.7394 7.49997 14.5625 7.49997 14.375V13.75H10.625C10.9706 13.75 11.25 13.47 11.25 13.125V9.375C11.25 9.03 10.9706 8.75001 10.625 8.75001Z" fill="#A4A4A4"/>
</svg>
