<svg width="13" height="15" viewBox="0 0 13 15" fill="none" xmlns="http://www.w3.org/2000/svg">
<path d="M12.0259 5.76922H8.23564C7.821 5.76922 7.48494 5.43309 7.48494 5.01852V4.57558V0.750702C7.48488 0.336122 7.14876 0 6.73418 0H1.28412C0.698417 0 0.223633 0.474784 0.223633 1.06052V13.9395C0.223633 14.5252 0.698417 15 1.28412 15H11.7162C12.3019 15 12.7766 14.5252 12.7766 13.9396V6.51992C12.7766 6.10534 12.4405 5.76922 12.0259 5.76922ZM3.10826 2.34747H4.99937C5.32178 2.34747 5.60007 2.59517 5.61428 2.91726C5.62937 3.25915 5.35661 3.54108 5.01806 3.54108H3.12695C2.80454 3.54108 2.52625 3.29337 2.51204 2.97128C2.49695 2.62942 2.76967 2.34747 3.10826 2.34747ZM9.87216 12.2546H3.12698C2.80457 12.2546 2.52622 12.0069 2.51201 11.6848C2.49692 11.3429 2.76967 11.061 3.10823 11.061H9.85344C10.1759 11.061 10.4541 11.3087 10.4684 11.6308C10.4835 11.9727 10.2107 12.2546 9.87216 12.2546ZM9.87216 10.2254H3.12698C2.80457 10.2254 2.52622 9.97773 2.51201 9.65565C2.49692 9.31375 2.76967 9.0318 3.10823 9.0318H9.85344C10.1759 9.0318 10.4541 9.27953 10.4684 9.60159C10.4835 9.94352 10.2107 10.2254 9.87216 10.2254ZM9.87216 8.27585H3.12698C2.80457 8.27585 2.52622 8.02815 2.51201 7.70606C2.49692 7.36417 2.76967 7.08221 3.10823 7.08221H9.85344C10.1759 7.08221 10.4541 7.32992 10.4684 7.65201C10.4835 7.9939 10.2107 8.27585 9.87216 8.27585Z" fill="#A4A4A4"/>
<path d="M12.3309 4.2389L9.61983 0.443319C9.42158 0.165703 9.09961 0 8.75848 0C8.71389 0 8.67773 0.0361523 8.67773 0.080742V4.19355C8.67773 4.40454 8.84877 4.57558 9.05973 4.57558H12.1577C12.3309 4.57558 12.4316 4.37985 12.3309 4.2389Z" fill="#A4A4A4"/>
</svg>
