<svg width="15" height="13" viewBox="0 0 15 13" fill="none" xmlns="http://www.w3.org/2000/svg">
<path d="M8.03191 0.0711365C4.18348 0.0711365 1.06383 2.94943 1.06383 6.50001C1.06383 7.46462 1.29451 8.37934 1.70704 9.20048L0.0588001 12.1808C-0.0328406 12.3464 -0.0162402 12.5506 0.100741 12.6994C0.191264 12.8144 0.328437 12.8789 0.470421 12.8789C0.511854 12.8789 0.55366 12.8734 0.594889 12.862L4.20313 11.8717C5.30187 12.5398 6.61749 12.9289 8.03191 12.9289C11.8803 12.9289 15 10.0506 15 6.50001C15 2.94943 11.8803 0.0711365 8.03191 0.0711365ZM8.02022 9.80287C7.63987 9.80287 7.3306 9.49349 7.3306 9.11321C7.3306 8.73292 7.63994 8.42355 8.02022 8.42355C8.40057 8.42355 8.70988 8.73296 8.70988 9.11321C8.70995 9.49345 8.40061 9.80287 8.02022 9.80287ZM8.74274 6.52213C8.65215 6.58406 8.58955 6.62969 8.55567 6.65835V7.37901C8.55567 7.67416 8.31544 7.91429 8.02032 7.91429C7.72508 7.91429 7.48498 7.67416 7.48498 7.37901V6.60259C7.48498 6.0849 7.86279 5.82668 8.13869 5.63818C8.43645 5.43474 8.63315 5.30034 8.63315 4.88063C8.63315 4.54269 8.35829 4.26777 8.02032 4.26777C7.68232 4.26777 7.4075 4.54269 7.4075 4.88063C7.4075 5.17581 7.1673 5.41594 6.87212 5.41594C6.57694 5.41594 6.33674 5.17581 6.33674 4.88063C6.33674 3.95236 7.09199 3.19715 8.02029 3.19715C8.94849 3.19715 9.70373 3.95236 9.70373 4.88063C9.7038 5.86554 9.10219 6.27661 8.74274 6.52213Z" fill="#A4A4A4"/>
</svg>
