<svg width="15" height="15" viewBox="0 0 15 15" fill="none" xmlns="http://www.w3.org/2000/svg">
<path d="M6.76851 8.22916V8.0884C6.76851 6.17023 8.32501 4.62024 10.2435 4.62024H13.9863V3.5753C13.9863 3.34624 13.8009 3.16052 13.5719 3.16052H2.606C2.19317 3.16052 1.85887 2.82296 1.85887 2.41013C1.85887 1.99762 2.1935 1.66006 2.606 1.66006H13.5908C13.8091 1.66006 13.9863 1.48281 13.9863 1.2645V0.905109C13.9863 0.707655 13.827 0.565918 13.6292 0.565918H1.39163C0.617777 0.565918 0 1.17425 0 1.9481V13.0316C0 13.8054 0.617777 14.4343 1.39163 14.4343H12.5862C13.3601 14.4343 13.9863 13.8054 13.9863 13.0316V11.7175H10.2435C8.32501 11.7165 6.76851 10.1477 6.76851 8.22916Z" fill="#A4A4A4"/>
<path d="M14.0726 5.71539H10.2438C8.94109 5.71539 7.9043 6.78673 7.9043 8.0894V8.22951C7.9043 9.53219 8.94109 10.5817 10.2438 10.5817H14.0729C14.5764 10.5817 15.0006 10.1803 15.0006 9.67751V6.64238C15.0003 6.13865 14.576 5.71539 14.0726 5.71539ZM10.4539 9.18681C9.88666 9.18681 9.42658 8.72706 9.42658 8.15946C9.42658 7.59251 9.88666 7.13244 10.4539 7.13244C11.0212 7.13244 11.4813 7.59251 11.4813 8.15946C11.4813 8.72706 11.0212 9.18681 10.4539 9.18681Z" fill="#A4A4A4"/>
</svg>
