<svg width="30" height="30" viewBox="0 0 30 30" fill="none" xmlns="http://www.w3.org/2000/svg">
<g clip-path="url(#clip0)">
<path d="M10.3871 5.77882H5.1416C4.65614 5.77882 4.2627 6.17227 4.2627 6.65773C4.2627 7.14319 4.65614 7.53664 5.1416 7.53664H10.3871C10.8723 7.53664 11.266 7.14319 11.266 6.65773C11.266 6.17227 10.8723 5.77882 10.3871 5.77882Z" fill="#244B29"/>
<path d="M10.3871 9.29535H5.1416C4.65614 9.29535 4.2627 9.6888 4.2627 10.1743C4.2627 10.6597 4.65614 11.0532 5.1416 11.0532H10.3871C10.8723 11.0532 11.266 10.6597 11.266 10.1743C11.266 9.6888 10.8723 9.29535 10.3871 9.29535Z" fill="#244B29"/>
<path d="M10.3871 12.8119H5.1416C4.65614 12.8119 4.2627 13.2053 4.2627 13.6908C4.2627 14.1763 4.65614 14.5697 5.1416 14.5697H10.3871C10.8723 14.5697 11.266 14.1763 11.266 13.6908C11.266 13.2053 10.8723 12.8119 10.3871 12.8119Z" fill="#244B29"/>
<path d="M10.3871 16.3275H5.1416C4.65614 16.3275 4.2627 16.7209 4.2627 17.2064C4.2627 17.6919 4.65614 18.0853 5.1416 18.0853H10.3871C10.8723 18.0853 11.266 17.6919 11.266 17.2064C11.266 16.7209 10.8723 16.3275 10.3871 16.3275Z" fill="#244B29"/>
<path d="M10.3871 19.9017H5.1416C4.65614 19.9017 4.2627 20.2954 4.2627 20.7806C4.2627 21.2661 4.65614 21.6595 5.1416 21.6595H10.3871C10.8723 21.6595 11.266 21.2661 11.266 20.7806C11.266 20.2954 10.8723 19.9017 10.3871 19.9017Z" fill="#244B29"/>
<path d="M13.3447 7.53664H18.5902C19.0757 7.53664 19.4691 7.14319 19.4691 6.65773C19.4691 6.17227 19.0757 5.77882 18.5902 5.77882H13.3447C12.8595 5.77882 12.4658 6.17227 12.4658 6.65773C12.4658 7.14319 12.8595 7.53664 13.3447 7.53664Z" fill="#244B29"/>
<path d="M13.3447 11.0532H18.5902C19.0757 11.0532 19.4691 10.6597 19.4691 10.1743C19.4691 9.6888 19.0757 9.29535 18.5902 9.29535H13.3447C12.8595 9.29535 12.4658 9.6888 12.4658 10.1743C12.4658 10.6597 12.8595 11.0532 13.3447 11.0532Z" fill="#244B29"/>
<path d="M16.75 13.6908C16.75 13.2053 16.3566 12.8119 15.8711 12.8119H13.3447C12.8595 12.8119 12.4658 13.2053 12.4658 13.6908C12.4658 14.1763 12.8595 14.5697 13.3447 14.5697H15.8711C16.3566 14.5697 16.75 14.1763 16.75 13.6908Z" fill="#244B29"/>
<path d="M25.0745 20.2727C24.696 19.969 24.143 20.0297 23.839 20.4082L21.5754 23.2303L20.1739 22.215C19.781 21.9301 19.2312 22.018 18.9464 22.4109C18.6617 22.8042 18.7496 23.3537 19.1426 23.6384L21.2215 25.1447C21.3772 25.2573 21.5575 25.312 21.7367 25.312C21.9947 25.312 22.2497 25.1987 22.4227 24.9829L25.2103 21.5082C25.514 21.1297 25.4533 20.5765 25.0745 20.2727Z" fill="#244B29"/>
<path d="M27.2921 17.5747C26.1472 16.4097 24.6762 15.6754 23.0823 15.4591V3.53966C23.0823 1.58798 21.4943 0 19.5426 0H4.18442C2.23251 0 0.644531 1.58798 0.644531 3.53966V23.8994C0.644531 25.8513 2.23251 27.4393 4.18419 27.4393H16.5367C17.9267 29.0721 19.9253 30 22.0876 30C26.1124 30 29.3868 26.7233 29.3868 22.6957C29.3868 20.7676 28.643 18.9489 27.2921 17.5747ZM2.40234 23.8994V3.53966C2.40234 2.5573 3.20183 1.75781 4.18442 1.75781H19.5426C20.5252 1.75781 21.3245 2.5573 21.3245 3.53966V15.4312C17.6569 15.8141 14.7883 18.9258 14.7883 22.6957C14.7883 23.7405 15.0062 24.7508 15.4241 25.6812H4.18442C3.20183 25.6812 2.40234 24.882 2.40234 23.8994ZM22.0876 28.2422C20.3323 28.2422 18.7186 27.4363 17.6601 26.0314C16.9313 25.0639 16.5459 23.9106 16.5459 22.6957C16.5459 19.6374 19.032 17.1492 22.0876 17.1492C22.1164 17.1492 22.1455 17.1497 22.1743 17.1501L22.1878 17.1503C23.6465 17.1762 25.014 17.7644 26.0385 18.8068C27.0641 19.8502 27.629 21.2315 27.629 22.6957C27.629 25.754 25.1431 28.2422 22.0876 28.2422Z" fill="#244B29"/>
</g>
<defs>
<clipPath id="clip0">
<rect width="30" height="30" fill="white"/>
</clipPath>
</defs>
</svg>
