<svg width="21" height="20" viewBox="0 0 21 20" fill="none" xmlns="http://www.w3.org/2000/svg">
<path d="M12.4359 0C16.6639 0 20.0835 3.41961 20.0835 7.64756C20.0835 11.8755 16.6639 15.2951 12.4359 15.2951C10.9265 15.2951 9.52944 14.8523 8.34505 14.1002L2.82025 19.625L0.908354 17.7131L6.36287 12.2727C5.38232 10.9863 4.78837 9.39252 4.78837 7.64756C4.78837 3.41961 8.20798 0 12.4359 0ZM12.4359 1.79943C9.19732 1.79943 6.5878 4.40895 6.5878 7.64756C6.5878 10.8862 9.19732 13.4957 12.4359 13.4957C15.6745 13.4957 18.2841 10.8862 18.2841 7.64756C18.2841 4.40895 15.6745 1.79943 12.4359 1.79943Z" fill="#CFCFCF"/>
</svg>
