<svg width="30" height="30" viewBox="0 0 30 30" fill="none" xmlns="http://www.w3.org/2000/svg">
<path d="M23.7891 28.2422H22.4347C23.2715 24.3555 23.1174 21.4799 21.968 19.4749C20.8435 17.5136 18.9819 16.7731 17.6225 16.2324C16.2717 15.6951 15.8789 15.4682 15.8789 15C15.8789 14.5318 16.2717 14.3049 17.6225 13.7676C18.9819 13.2269 20.8435 12.4864 21.968 10.5251C22.4763 9.6385 22.7691 8.48086 22.777 8.26734C23.1115 6.526 22.9972 4.37045 22.4347 1.75781H23.7891C24.2745 1.75781 24.668 1.3643 24.668 0.878906C24.668 0.393516 24.2745 0 23.7891 0H6.21094C5.72555 0 5.33203 0.393516 5.33203 0.878906C5.33203 1.3643 5.72555 1.75781 6.21094 1.75781H7.56527C7.06822 4.06635 6.92063 6.01846 7.12395 7.64285C7.12301 7.78688 7.3084 9.26279 8.03209 10.5251C9.15656 12.4864 11.0182 13.2269 12.3775 13.7676C13.7283 14.3049 14.1211 14.5318 14.1211 15C14.1211 15.4682 13.7283 15.6951 12.3775 16.2324C11.0181 16.7731 9.1565 17.5136 8.03203 19.4749C6.8826 21.4799 6.7285 24.3555 7.56527 28.2422H6.21094C5.72555 28.2422 5.33203 28.6357 5.33203 29.1211C5.33203 29.6065 5.72555 30 6.21094 30H23.7891C24.2745 30 24.668 29.6065 24.668 29.1211C24.668 28.6357 24.2745 28.2422 23.7891 28.2422ZM15 24.1583C15.5065 24.7383 16.1703 25.24 16.8236 25.7333C17.8579 26.5143 18.8471 27.2614 19.2289 28.2421H10.7711C11.1529 27.2614 12.1421 26.5143 13.1764 25.7333C13.8297 25.24 14.4935 24.7383 15 24.1583ZM20.6344 1.75781C21.0918 3.76424 21.2733 5.47793 21.1793 6.88764C20.4944 6.59789 19.3635 6.21094 18.2073 6.21094C16.3994 6.21094 14.6511 7.1577 14.5776 7.19801C14.5635 7.20568 13.1337 7.96875 11.7927 7.96875C10.4422 7.96875 9.02062 7.20498 9.00785 7.19801L8.8377 7.10473C8.70873 5.65506 8.88451 3.86848 9.36562 1.75781H20.6344ZM13.0271 12.1342C11.7846 11.64 10.3763 11.0798 9.55699 9.6508C9.48551 9.52617 9.41965 9.3951 9.3583 9.25898C10.0268 9.49687 10.9022 9.72656 11.7927 9.72656C13.6006 9.72656 15.3489 8.77981 15.4224 8.73949C15.4365 8.73182 16.8663 7.96875 18.2073 7.96875C19.3218 7.96875 20.4839 8.48859 20.8635 8.67428C20.751 9.031 20.6113 9.35713 20.4429 9.65074C19.6237 11.0798 18.2153 11.6399 16.9728 12.1342C16.2854 12.4076 15.5514 12.7003 14.9999 13.155C14.4486 12.7003 13.7146 12.4076 13.0271 12.1342ZM9.55699 20.3492C10.3763 18.9202 11.7846 18.36 13.0271 17.8658C13.7145 17.5923 14.4486 17.2997 15 16.8449C15.5514 17.2997 16.2854 17.5924 16.9729 17.8658C18.2154 18.36 19.6237 18.9202 20.443 20.3492C21.318 21.8756 21.4382 24.2603 20.8038 27.4499C20.2071 26.0869 18.9499 25.1362 17.8829 24.3305C16.8076 23.5185 15.8789 22.8173 15.8789 22.0312C15.8789 21.5459 15.4854 21.1523 15 21.1523C14.5146 21.1523 14.1211 21.5459 14.1211 22.0312C14.1211 22.8173 13.1924 23.5185 12.1171 24.3306C11.0501 25.1363 9.79289 26.0869 9.19617 27.45C8.56184 24.2603 8.68195 21.8756 9.55699 20.3492Z" fill="#A4A4A4"/>
</svg>
